<svg width="85" height="90" viewBox="0 0 85 90" fill="none" xmlns="http://www.w3.org/2000/svg">
<path fill-rule="evenodd" clip-rule="evenodd" d="M79.1528 11.3965L4.1748 38.7012L0 27.2607L74.978 0L79.1528 11.3965ZM84.5654 90H4.29932V39.3091H84.5654V90ZM74.5532 11.4624V1.72852L69.2578 3.64014V13.4106L74.5532 11.4624ZM64.0064 15.3296V5.55908L58.689 7.44873V17.2998L64.0064 15.3296ZM53.0933 19.0942V9.42627L47.7759 11.3379V21.0498L53.0933 19.0942ZM83.0786 50.0391L79.7388 40.8545H74.0772L77.417 50.0391H83.0786ZM71.5137 50.0391L68.1738 40.8545H62.4902L65.8521 50.0391H71.5137ZM42.4658 23.2104V13.418L37.1558 15.3296V25.1001L42.4658 23.2104ZM60.3589 50.0391L57.019 40.8545H51.3574L54.6973 50.0391H60.3589ZM31.5527 26.9531V17.2412L26.1768 19.1528V28.9233L31.5527 26.9531ZM48.794 50.0391L45.4541 40.8545H39.7778L43.1177 50.0391H48.794ZM21.1084 30.9668V21.167L15.7544 23.1445V32.8564L21.1084 30.9668ZM37.3975 50.0391L34.0576 40.8545H28.396L31.7358 50.0391H37.3975ZM10.1367 34.7095V24.9976L4.81934 26.8872V36.6797L10.1367 34.7095ZM25.8984 50.0391L22.5 40.8545H16.8823L20.1636 50.0391H25.8984ZM14.6191 50.0391L11.2207 40.8545H5.55908L8.89893 50.0391H14.6191Z" fill="#FAFAFA"/>
</svg>
