<svg width="16" height="16" viewBox="0 0 16 16" fill="none" xmlns="http://www.w3.org/2000/svg">
<path d="M8.00004 13.9999L7.03337 13.1333C5.91115 12.1222 4.98337 11.2499 4.25004 10.5166C3.51671 9.78327 2.93337 9.12771 2.50004 8.54994C2.06671 7.96105 1.76115 7.42216 1.58337 6.93327C1.41671 6.44438 1.33337 5.94438 1.33337 5.43327C1.33337 4.38882 1.68337 3.5166 2.38337 2.8166C3.08337 2.1166 3.9556 1.7666 5.00004 1.7666C5.57782 1.7666 6.12782 1.88882 6.65004 2.13327C7.17226 2.37771 7.62226 2.72216 8.00004 3.1666C8.37782 2.72216 8.82782 2.37771 9.35004 2.13327C9.87226 1.88882 10.4223 1.7666 11 1.7666C12.0445 1.7666 12.9167 2.1166 13.6167 2.8166C14.3167 3.5166 14.6667 4.38882 14.6667 5.43327C14.6667 5.94438 14.5778 6.44438 14.4 6.93327C14.2334 7.42216 13.9334 7.96105 13.5 8.54994C13.0667 9.12771 12.4834 9.78327 11.75 10.5166C11.0167 11.2499 10.0889 12.1222 8.96671 13.1333L8.00004 13.9999ZM8.00004 12.1999C9.06671 11.2444 9.94449 10.4277 10.6334 9.74993C11.3223 9.06105 11.8667 8.4666 12.2667 7.9666C12.6667 7.45549 12.9445 7.00549 13.1 6.6166C13.2556 6.2166 13.3334 5.82216 13.3334 5.43327C13.3334 4.7666 13.1112 4.21105 12.6667 3.7666C12.2223 3.32216 11.6667 3.09994 11 3.09994C10.4778 3.09994 9.99449 3.24994 9.55004 3.54994C9.1056 3.83882 8.80004 4.21105 8.63337 4.6666H7.36671C7.20004 4.21105 6.89449 3.83882 6.45004 3.54994C6.0056 3.24994 5.52226 3.09994 5.00004 3.09994C4.33337 3.09994 3.77782 3.32216 3.33337 3.7666C2.88893 4.21105 2.66671 4.7666 2.66671 5.43327C2.66671 5.82216 2.74449 6.2166 2.90004 6.6166C3.0556 7.00549 3.33337 7.45549 3.73337 7.9666C4.13337 8.4666 4.67782 9.06105 5.36671 9.74993C6.0556 10.4277 6.93337 11.2444 8.00004 12.1999Z" fill="black"/>
</svg>
