<svg width="13" height="14" viewBox="0 0 13 14" fill="none" xmlns="http://www.w3.org/2000/svg">
<path d="M4.33333 8H5.66667V4.66667H4.33333V8ZM1.66667 7C1.15556 6.74444 0.75 6.375 0.45 5.89167C0.15 5.40833 0 4.88333 0 4.31667C0 3.48333 0.286111 2.77778 0.858333 2.2C1.43056 1.62222 2.13333 1.33333 2.96667 1.33333C3.1 1.33333 3.23611 1.34444 3.375 1.36667C3.51389 1.38889 3.65 1.41667 3.78333 1.45C4.06111 0.994444 4.42222 0.638889 4.86667 0.383333C5.31111 0.127778 5.8 0 6.33333 0C6.86667 0 7.35556 0.127778 7.8 0.383333C8.24444 0.638889 8.60555 0.994444 8.88333 1.45C9.01667 1.41667 9.15 1.38889 9.28333 1.36667C9.41667 1.34444 9.55556 1.33333 9.7 1.33333C10.5333 1.33333 11.2361 1.62222 11.8083 2.2C12.3806 2.77778 12.6667 3.48333 12.6667 4.31667C12.6667 4.88333 12.5167 5.40833 12.2167 5.89167C11.9167 6.375 11.5111 6.74444 11 7V10.6667H1.66667V7ZM7 8H8.33333V4.66667H7V8ZM3 9.33333H9.66667V6.18333L10.4 5.81667C10.6889 5.67222 10.9167 5.46944 11.0833 5.20833C11.25 4.94722 11.3333 4.65556 11.3333 4.33333C11.3333 3.86667 11.175 3.47222 10.8583 3.15C10.5417 2.82778 10.1556 2.66667 9.7 2.66667C9.57778 2.66667 9.46667 2.67778 9.36667 2.7C9.26667 2.72222 9.16111 2.75 9.05 2.78333L8.26667 3L7.75 2.13333C7.59444 1.87778 7.39167 1.68056 7.14167 1.54167C6.89167 1.40278 6.62222 1.33333 6.33333 1.33333C6.04444 1.33333 5.775 1.40278 5.525 1.54167C5.275 1.68056 5.07222 1.87778 4.91667 2.13333L4.4 3L3.6 2.78333C3.48889 2.76111 3.38056 2.73611 3.275 2.70833C3.16944 2.68056 3.06111 2.66667 2.95 2.66667C2.49444 2.66667 2.11111 2.82778 1.8 3.15C1.48889 3.47222 1.33333 3.86667 1.33333 4.33333C1.33333 4.65556 1.41667 4.94722 1.58333 5.20833C1.75 5.46944 1.97778 5.67222 2.26667 5.81667L3 6.18333V9.33333ZM1.66667 10.6667H3V12H9.66667V10.6667H11V13.3333H1.66667V10.6667Z" fill="black"/>
</svg>
