<svg width="50" height="31" viewBox="0 0 50 31" fill="none" xmlns="http://www.w3.org/2000/svg">
<path fill-rule="evenodd" clip-rule="evenodd" d="M39.5955 15.0329C39.5955 19.0694 38.1755 22.5158 35.3312 25.3601C32.4829 28.2084 29.0405 29.6325 25.0041 29.6325C20.9839 29.6325 17.5415 28.2124 14.6891 25.3601C11.8408 22.5158 10.4085 19.0694 10.4085 15.0329C10.4085 11.0087 11.8368 7.57848 14.6891 4.72203C17.5496 1.87373 20.988 0.441436 25.0041 0.441436C29.0405 0.441436 32.4829 1.86966 35.3312 4.72203C38.1714 7.57848 39.5955 11.0087 39.5955 15.0329ZM6.66097 12.3433C7.94271 11.4685 8.58561 10.3251 8.47575 7.70869V0.982614C8.46354 0.0426731 6.75863 -0.0712592 6.67318 0.982614L6.60807 6.43916C6.604 7.46048 5.06999 7.49303 5.07406 6.43916L5.13916 0.79544C5.11881 -0.213675 3.49121 -0.3154 3.47087 0.79544C3.47087 2.36201 3.40576 4.87259 3.40576 6.43916C3.48714 7.42793 2.06299 7.55814 2.09961 6.43916L2.16471 0.832061C2.12809 0.0711561 1.28988 -0.201468 0.720215 0.156605C0.113932 0.543161 0.236003 1.32034 0.211589 1.97545L0 8.41263C0.0325521 10.2844 0.524902 11.8062 1.98975 12.4532C2.21354 12.5508 2.52279 12.6281 2.88086 12.681L2.3763 28.3793C2.34782 29.3111 3.10872 30.072 3.99984 30.072H4.20329C5.20833 30.072 6.05876 29.2134 6.03027 28.1677L5.58675 12.6769C6.05469 12.6037 6.44124 12.4938 6.66097 12.3433ZM43.4326 27.9073L43.4082 13.8081C38.4644 10.9517 40.0391 -0.0549832 44.987 0.00605197C51.001 0.0752251 51.7131 12.4084 46.5413 13.7634L46.9238 27.9642C46.9971 30.6498 43.4367 30.898 43.4326 27.9073ZM33.5002 15.0207C33.5002 17.3726 32.6742 19.3786 31.0099 21.0428C29.3498 22.6989 27.3437 23.5331 24.9919 23.5331C22.6562 23.5331 20.6502 22.6989 18.9901 21.0428C17.3299 19.3786 16.4998 17.3726 16.4998 15.0207C16.4998 12.6851 17.3299 10.6791 18.9901 9.02298C20.6543 7.36689 22.6562 6.53274 24.9919 6.53274C29.716 6.53681 33.5002 10.2925 33.5002 15.0207ZM35.4899 15.0207C35.4899 12.1317 34.4727 9.66181 32.4259 7.6151C30.3792 5.56839 27.9012 4.55114 24.9919 4.55114C22.0907 4.55114 19.6208 5.56839 17.5863 7.6151C15.5396 9.66181 14.5101 12.1317 14.5101 15.0207C14.5101 17.9178 15.5396 20.3877 17.5863 22.4426C19.6208 24.4934 22.0907 25.5228 24.9919 25.5228C27.8971 25.5228 30.3752 24.4934 32.4259 22.4426C34.4686 20.3837 35.4899 17.9138 35.4899 15.0207Z" fill="white"/>
</svg>
