<svg width="10" height="14" viewBox="0 0 10 14" fill="none" xmlns="http://www.w3.org/2000/svg">
<path d="M3.33333 10.6667C2.96667 10.6667 2.65278 10.5361 2.39167 10.275C2.13056 10.0139 2 9.7 2 9.33333V8.5C1.36667 8.06667 0.875 7.51111 0.525 6.83333C0.175 6.15556 0 5.43333 0 4.66667C0 3.36667 0.452778 2.26389 1.35833 1.35833C2.26389 0.452778 3.36667 0 4.66667 0C5.96667 0 7.06944 0.452778 7.975 1.35833C8.88056 2.26389 9.33333 3.36667 9.33333 4.66667C9.33333 5.43333 9.15833 6.15278 8.80833 6.825C8.45833 7.49722 7.96667 8.05556 7.33333 8.5V9.33333C7.33333 9.7 7.20278 10.0139 6.94167 10.275C6.68056 10.5361 6.36667 10.6667 6 10.6667H3.33333ZM3.33333 9.33333H6V7.8L6.56667 7.4C7.02222 7.08889 7.375 6.69167 7.625 6.20833C7.875 5.725 8 5.21111 8 4.66667C8 3.74444 7.675 2.95833 7.025 2.30833C6.375 1.65833 5.58889 1.33333 4.66667 1.33333C3.74444 1.33333 2.95833 1.65833 2.30833 2.30833C1.65833 2.95833 1.33333 3.74444 1.33333 4.66667C1.33333 5.21111 1.45833 5.725 1.70833 6.20833C1.95833 6.69167 2.31111 7.08889 2.76667 7.4L3.33333 7.8V9.33333ZM3.33333 13.3333C3.14444 13.3333 2.98611 13.2694 2.85833 13.1417C2.73056 13.0139 2.66667 12.8556 2.66667 12.6667V12H6.66667V12.6667C6.66667 12.8556 6.60278 13.0139 6.475 13.1417C6.34722 13.2694 6.18889 13.3333 6 13.3333H3.33333Z" fill="#FAFAFA"/>
</svg>
