<svg width="18" height="18" viewBox="0 0 18 18" fill="none" xmlns="http://www.w3.org/2000/svg">
<g clip-path="url(#clip0_1532_4759)">
<path d="M6.27054 0.592013C4.47206 1.21592 2.92105 2.40012 1.84534 3.97067C0.769623 5.54122 0.2259 7.41534 0.294034 9.31775C0.362168 11.2202 1.03857 13.0506 2.22388 14.5401C3.40919 16.0297 5.04094 17.0999 6.87944 17.5936C8.36996 17.9782 9.93158 17.9951 11.4301 17.6428C12.7875 17.3379 14.0426 16.6857 15.0723 15.75C16.1439 14.7464 16.9218 13.4697 17.3223 12.0572C17.7575 10.5211 17.835 8.90567 17.5487 7.33498H9.17866V10.807H14.026C13.9291 11.3608 13.7215 11.8893 13.4156 12.361C13.1097 12.8326 12.7118 13.2377 12.2457 13.552C11.6538 13.9436 10.9865 14.207 10.2868 14.3255C9.58499 14.4559 8.86515 14.4559 8.16335 14.3255C7.45205 14.1784 6.77918 13.8848 6.18757 13.4634C5.23715 12.7907 4.52352 11.8349 4.14851 10.7325C3.76715 9.60944 3.76715 8.39193 4.14851 7.26889C4.41545 6.48169 4.85674 5.76495 5.43944 5.17217C6.10628 4.48134 6.9505 3.98754 7.87951 3.74493C8.80851 3.50233 9.78639 3.52029 10.7058 3.79686C11.4241 4.01735 12.0809 4.40258 12.624 4.92186C13.1705 4.37811 13.7162 3.83295 14.2609 3.28639C14.5421 2.99248 14.8487 2.71264 15.1257 2.4117C14.2968 1.64034 13.3238 1.04012 12.2626 0.645451C10.33 -0.0562822 8.21535 -0.0751406 6.27054 0.592013Z" fill="black"/>
<path d="M6.27053 0.592025C8.21518 -0.075582 10.3298 -0.05722 12.2626 0.644057C13.324 1.04141 14.2965 1.64452 15.1243 2.41874C14.843 2.71968 14.5463 3.00093 14.2594 3.29343C13.7138 3.83812 13.1687 4.38093 12.624 4.92187C12.0809 4.40259 11.4241 4.01736 10.7058 3.79687C9.78668 3.51933 8.80883 3.50033 7.87959 3.74194C6.95034 3.98356 6.10559 4.47646 5.43803 5.16656C4.85532 5.75934 4.41403 6.47608 4.14709 7.26328L1.23193 5.00624C2.27538 2.93703 4.08205 1.35425 6.27053 0.592025Z" fill="#E33629"/>
<path d="M0.458551 7.24216C0.615237 6.46562 0.875368 5.71361 1.23199 5.00623L4.14714 7.26888C3.76579 8.39192 3.76579 9.60944 4.14714 10.7325C3.17589 11.4825 2.20418 12.2362 1.23199 12.9937C0.339231 11.2167 0.066956 9.19193 0.458551 7.24216Z" fill="#F8BD00"/>
<path d="M9.1786 7.33362H17.5486C17.8349 8.9043 17.7575 10.5197 17.3222 12.0558C16.9217 13.4684 16.1439 14.745 15.0722 15.7486C14.1314 15.0146 13.1864 14.2861 12.2456 13.5521C12.7121 13.2374 13.1102 12.8319 13.4161 12.3597C13.722 11.8876 13.9294 11.3585 14.0259 10.8042H9.1786C9.1772 9.64831 9.1786 8.49096 9.1786 7.33362Z" fill="#587DBD"/>
<path d="M1.23047 12.9937C2.20266 12.2437 3.17437 11.49 4.14562 10.7325C4.52139 11.8353 5.23604 12.7911 6.1875 13.4634C6.78095 13.8829 7.45528 14.174 8.1675 14.3184C8.8693 14.4489 9.58914 14.4489 10.2909 14.3184C10.9907 14.2 11.6579 13.9365 12.2498 13.545C13.1906 14.279 14.1356 15.0075 15.0764 15.7415C14.0469 16.6777 12.7918 17.3304 11.4342 17.6358C9.93573 17.988 8.37411 17.9711 6.88359 17.5865C5.70474 17.2718 4.60361 16.7169 3.64922 15.9567C2.63905 15.1547 1.814 14.144 1.23047 12.9937Z" fill="#319F43"/>
</g>
<defs>
<clipPath id="clip0_1532_4759">
<rect width="18" height="18" fill="white"/>
</clipPath>
</defs>
</svg>
