<svg width="50" height="50" viewBox="0 0 50 50" fill="none" xmlns="http://www.w3.org/2000/svg">
<g clip-path="url(#clip0_1677_3583)">
<path fill-rule="evenodd" clip-rule="evenodd" d="M39.5955 24.996C39.5955 29.0325 38.1755 32.479 35.3312 35.3232C32.4829 38.1715 29.0405 39.5957 25.0041 39.5957C20.9839 39.5957 17.5415 38.1756 14.6891 35.3232C11.8408 32.479 10.4085 29.0325 10.4085 24.996C10.4085 20.9718 11.8368 17.5416 14.6891 14.6852C17.5496 11.8369 20.988 10.4046 25.0041 10.4046C29.0405 10.4046 32.4829 11.8328 35.3312 14.6852C38.1714 17.5416 39.5955 20.9718 39.5955 24.996ZM6.66097 22.3064C7.94271 21.4316 8.58561 20.2882 8.47575 17.6718V10.9457C8.46354 10.0058 6.75863 9.89188 6.67318 10.9457L6.60807 16.4023C6.604 17.4236 5.06999 17.4562 5.07406 16.4023L5.13916 10.7586C5.11881 9.74946 3.49121 9.64773 3.47087 10.7586C3.47087 12.3251 3.40576 14.8357 3.40576 16.4023C3.48714 17.3911 2.06299 17.5213 2.09961 16.4023L2.16471 10.7952C2.12809 10.0343 1.28988 9.76167 0.720215 10.1197C0.113932 10.5063 0.236003 11.2835 0.211589 11.9386L0 18.3758C0.0325521 20.2475 0.524902 21.7693 1.98975 22.4163C2.21354 22.5139 2.52279 22.5913 2.88086 22.6442L2.3763 38.3424C2.34782 39.2742 3.10872 40.0351 3.99984 40.0351H4.20329C5.20833 40.0351 6.05876 39.1765 6.03027 38.1308L5.58675 22.6401C6.05469 22.5668 6.44124 22.457 6.66097 22.3064ZM43.4326 37.8704L43.4082 23.7713C38.4644 20.9148 40.0391 9.90815 44.987 9.96919C51.001 10.0384 51.7131 22.3715 46.5413 23.7265L46.9238 37.9274C46.9971 40.6129 43.4367 40.8611 43.4326 37.8704ZM33.5002 24.9838C33.5002 27.3357 32.6742 29.3417 31.0099 31.006C29.3498 32.6621 27.3437 33.4962 24.9919 33.4962C22.6562 33.4962 20.6502 32.6621 18.9901 31.006C17.3299 29.3417 16.4998 27.3357 16.4998 24.9838C16.4998 22.6482 17.3299 20.6422 18.9901 18.9861C20.6543 17.33 22.6562 16.4959 24.9919 16.4959C29.716 16.4999 33.5002 20.2556 33.5002 24.9838ZM35.4899 24.9838C35.4899 22.0948 34.4727 19.6249 32.4259 17.5782C30.3792 15.5315 27.9012 14.5143 24.9919 14.5143C22.0907 14.5143 19.6208 15.5315 17.5863 17.5782C15.5396 19.6249 14.5101 22.0948 14.5101 24.9838C14.5101 27.881 15.5396 30.3509 17.5863 32.4057C19.6208 34.4565 22.0907 35.486 24.9919 35.486C27.8971 35.486 30.3752 34.4565 32.4259 32.4057C34.4686 30.3468 35.4899 27.8769 35.4899 24.9838Z" fill="black"/>
</g>
<defs>
<clipPath id="clip0_1677_3583">
<rect width="50" height="50" fill="white"/>
</clipPath>
</defs>
</svg>
