<svg width="50" height="50" viewBox="0 0 50 50" fill="none" xmlns="http://www.w3.org/2000/svg">
<g clip-path="url(#clip0_1677_3523)">
<path opacity="0.6" fill-rule="evenodd" clip-rule="evenodd" d="M6.25008 8.33325H43.7501C44.3026 8.33325 44.8325 8.55275 45.2232 8.94345C45.6139 9.33415 45.8334 9.86405 45.8334 10.4166V12.4999H4.16675V10.4166C4.16675 9.86405 4.38624 9.33415 4.77694 8.94345C5.16764 8.55275 5.69755 8.33325 6.25008 8.33325Z" fill="black"/>
<path opacity="0.3" fill-rule="evenodd" clip-rule="evenodd" d="M10.4166 4.16675H39.5833C40.1358 4.16675 40.6657 4.38624 41.0564 4.77694C41.4471 5.16764 41.6666 5.69755 41.6666 6.25008V8.33341H8.33325V6.25008C8.33325 5.69755 8.55275 5.16764 8.94345 4.77694C9.33415 4.38624 9.86405 4.16675 10.4166 4.16675Z" fill="black"/>
<path fill-rule="evenodd" clip-rule="evenodd" d="M2.08333 12.5H47.9167C48.4692 12.5 48.9991 12.7195 49.3898 13.1102C49.7805 13.5009 50 14.0308 50 14.5833V45.8333C50 46.3859 49.7805 46.9158 49.3898 47.3065C48.9991 47.6972 48.4692 47.9167 47.9167 47.9167H2.08333C1.5308 47.9167 1.0009 47.6972 0.610194 47.3065C0.219493 46.9158 0 46.3859 0 45.8333V14.5833C0 14.0308 0.219493 13.5009 0.610194 13.1102C1.0009 12.7195 1.5308 12.5 2.08333 12.5ZM2.08333 16.6667V22.9167H8.33333V16.6667H2.08333ZM2.08333 27.0833V33.3333H8.33333V27.0833H2.08333ZM2.08333 37.5V43.75H8.33333V37.5H2.08333ZM41.6667 16.6667V22.9167H47.9167V16.6667H41.6667ZM41.6667 27.0833V33.3333H47.9167V27.0833H41.6667ZM41.6667 37.5V43.75H47.9167V37.5H41.6667Z" fill="black"/>
</g>
<defs>
<clipPath id="clip0_1677_3523">
<rect width="50" height="50" fill="white"/>
</clipPath>
</defs>
</svg>
