<svg width="14" height="14" viewBox="0 0 14 14" fill="none" xmlns="http://www.w3.org/2000/svg">
<path d="M10.5 12.8332C10.0139 12.8332 9.60069 12.663 9.26042 12.3228C8.92014 11.9825 8.75 11.5693 8.75 11.0832C8.75 11.0151 8.75486 10.9446 8.76458 10.8717C8.77431 10.7988 8.78889 10.7332 8.80833 10.6748L4.69583 8.28317C4.53056 8.429 4.34583 8.54324 4.14167 8.62588C3.9375 8.70852 3.72361 8.74984 3.5 8.74984C3.01389 8.74984 2.60069 8.5797 2.26042 8.23942C1.92014 7.89914 1.75 7.48595 1.75 6.99984C1.75 6.51373 1.92014 6.10053 2.26042 5.76025C2.60069 5.41998 3.01389 5.24984 3.5 5.24984C3.72361 5.24984 3.9375 5.29116 4.14167 5.3738C4.34583 5.45643 4.53056 5.57067 4.69583 5.7165L8.80833 3.32484C8.78889 3.2665 8.77431 3.20088 8.76458 3.12796C8.75486 3.05505 8.75 2.98456 8.75 2.9165C8.75 2.43039 8.92014 2.0172 9.26042 1.67692C9.60069 1.33664 10.0139 1.1665 10.5 1.1665C10.9861 1.1665 11.3993 1.33664 11.7396 1.67692C12.0799 2.0172 12.25 2.43039 12.25 2.9165C12.25 3.40261 12.0799 3.81581 11.7396 4.15609C11.3993 4.49636 10.9861 4.6665 10.5 4.6665C10.2764 4.6665 10.0625 4.62518 9.85833 4.54255C9.65417 4.45991 9.46944 4.34567 9.30417 4.19984L5.19167 6.5915C5.21111 6.64984 5.22569 6.71546 5.23542 6.78838C5.24514 6.8613 5.25 6.93178 5.25 6.99984C5.25 7.06789 5.24514 7.13838 5.23542 7.2113C5.22569 7.28421 5.21111 7.34984 5.19167 7.40817L9.30417 9.79984C9.46944 9.654 9.65417 9.53977 9.85833 9.45713C10.0625 9.37449 10.2764 9.33317 10.5 9.33317C10.9861 9.33317 11.3993 9.50331 11.7396 9.84359C12.0799 10.1839 12.25 10.5971 12.25 11.0832C12.25 11.5693 12.0799 11.9825 11.7396 12.3228C11.3993 12.663 10.9861 12.8332 10.5 12.8332ZM10.5 3.49984C10.6653 3.49984 10.8038 3.44393 10.9156 3.33213C11.0274 3.22032 11.0833 3.08178 11.0833 2.9165C11.0833 2.75123 11.0274 2.61268 10.9156 2.50088C10.8038 2.38907 10.6653 2.33317 10.5 2.33317C10.3347 2.33317 10.1962 2.38907 10.0844 2.50088C9.97257 2.61268 9.91667 2.75123 9.91667 2.9165C9.91667 3.08178 9.97257 3.22032 10.0844 3.33213C10.1962 3.44393 10.3347 3.49984 10.5 3.49984ZM3.5 7.58317C3.66528 7.58317 3.80382 7.52727 3.91563 7.41546C4.02743 7.30366 4.08333 7.16511 4.08333 6.99984C4.08333 6.83456 4.02743 6.69602 3.91563 6.58421C3.80382 6.47241 3.66528 6.4165 3.5 6.4165C3.33472 6.4165 3.19618 6.47241 3.08438 6.58421C2.97257 6.69602 2.91667 6.83456 2.91667 6.99984C2.91667 7.16511 2.97257 7.30366 3.08438 7.41546C3.19618 7.52727 3.33472 7.58317 3.5 7.58317ZM10.5 11.6665C10.6653 11.6665 10.8038 11.6106 10.9156 11.4988C11.0274 11.387 11.0833 11.2484 11.0833 11.0832C11.0833 10.9179 11.0274 10.7794 10.9156 10.6675C10.8038 10.5557 10.6653 10.4998 10.5 10.4998C10.3347 10.4998 10.1962 10.5557 10.0844 10.6675C9.97257 10.7794 9.91667 10.9179 9.91667 11.0832C9.91667 11.2484 9.97257 11.387 10.0844 11.4988C10.1962 11.6106 10.3347 11.6665 10.5 11.6665Z" fill="#FAFAFA"/>
</svg>
