<svg width="20" height="20" viewBox="0 0 20 20" fill="none" xmlns="http://www.w3.org/2000/svg">
<path d="M3.33341 16.6666C2.87508 16.6666 2.48272 16.5035 2.15633 16.1771C1.82994 15.8507 1.66675 15.4583 1.66675 15V4.99998C1.66675 4.54165 1.82994 4.14929 2.15633 3.8229C2.48272 3.49651 2.87508 3.33331 3.33341 3.33331H16.6667C17.1251 3.33331 17.5174 3.49651 17.8438 3.8229C18.1702 4.14929 18.3334 4.54165 18.3334 4.99998V15C18.3334 15.4583 18.1702 15.8507 17.8438 16.1771C17.5174 16.5035 17.1251 16.6666 16.6667 16.6666H3.33341ZM10.0001 10.8333L3.33341 6.66665V15H16.6667V6.66665L10.0001 10.8333ZM10.0001 9.16665L16.6667 4.99998H3.33341L10.0001 9.16665ZM3.33341 6.66665V4.99998V15V6.66665Z" fill="#A1A1A1"/>
</svg>
