<svg width="51" height="50" viewBox="0 0 51 50" fill="none" xmlns="http://www.w3.org/2000/svg">
<path d="M22.3286 4.15568C22.6761 1.61267 26.3523 1.61267 26.6998 4.15568L28.7068 18.8448C28.8409 19.8261 29.6125 20.5977 30.5938 20.7318L45.2829 22.7388C47.8259 23.0863 47.8259 26.7625 45.2829 27.1099L30.5938 29.117C29.6125 29.251 28.8409 30.0227 28.7068 31.0039L26.6998 45.6931C26.3523 48.2361 22.6761 48.2361 22.3286 45.6931L20.3216 31.0039C20.1876 30.0227 19.4159 29.251 18.4347 29.117L3.74553 27.1099C1.20251 26.7625 1.20251 23.0863 3.74553 22.7388L18.4347 20.7318C19.4159 20.5977 20.1876 19.8261 20.3216 18.8448L22.3286 4.15568Z" stroke="black" stroke-width="3.67647"/>
<path d="M37.1323 8.61792L37.1531 11.5435C37.156 11.9455 37.4812 12.2707 37.8832 12.2736L40.8088 12.2944L37.8832 12.3152C37.4812 12.3181 37.156 12.6433 37.1531 13.0453L37.1323 15.9709L37.1114 13.0453C37.1086 12.6433 36.7834 12.3181 36.3814 12.3152L33.4558 12.2944L36.3814 12.2736C36.7834 12.2707 37.1086 11.9455 37.1114 11.5435L37.1323 8.61792Z" stroke="black" stroke-width="2.20588"/>
<circle cx="12.1833" cy="37.5356" r="2.57353" stroke="black" stroke-width="2.20588"/>
</svg>
