<svg width="68" height="90" viewBox="0 0 68 90" fill="none" xmlns="http://www.w3.org/2000/svg">
<path d="M62.2798 8.38424L59.6197 4.12189C60.2429 3.7241 60.6591 3.02959 60.6591 2.23646C60.6591 1.00125 59.6591 0 58.4228 0H8.49234C6.16236 0 4.03928 0.94957 2.51473 2.47658C0.98754 3.99744 0 6.12563 0 8.45191V82.6356C0 86.7022 3.29801 90 7.36453 90H61.371C64.797 90 67.5754 87.2241 67.5754 83.7993V14.4962C67.5754 11.3804 65.2699 8.83125 62.2798 8.38424ZM15.4603 31.7004L20.3815 37.5267C20.7682 37.9862 21.4161 38.0747 21.8273 37.7263L22.0293 37.5576C22.4406 37.209 22.4652 36.5551 22.076 36.0958L17.1278 30.2363C16.13 29.0554 16.5489 28.0972 17.2361 27.5171C17.9232 26.9371 18.938 26.6846 19.9355 27.8657L24.8838 33.7252C25.2705 34.1845 25.9207 34.2719 26.332 33.9235L26.5315 33.7547C26.9429 33.4074 26.9675 32.7535 26.5783 32.2942L21.6571 26.4667C19.8714 24.3522 22.6521 22.128 24.396 24.1945C26.4871 26.6699 29.0438 29.6981 29.0438 29.6981C32.2678 33.4888 32.2803 35.1684 31.928 37.4948C31.6448 39.3692 31.1743 40.7016 33.1743 43.071L33.8098 43.8223L31.0045 47.1437L29.8985 45.8371C27.8986 43.4675 26.5069 43.7077 24.6104 43.6744C22.2581 43.6326 20.6054 43.3345 17.4085 39.5232C17.4085 39.5232 14.8519 36.4948 12.7608 34.0195C11.0171 31.954 13.6746 29.5847 15.4603 31.7004ZM24.7927 78.7897H23.204V73.9856L21.6276 77.3205H20.4921L18.8689 73.9672V78.7899H17.2826V70.323H18.8047L21.0584 75.1235L23.2676 70.323H24.7924V78.7897H24.7927ZM32.7531 71.7848H28.8V73.7972H32.172V75.2479H28.8V77.3279H32.7531V78.7897H27.2138V70.323H32.7531V71.7848ZM41.2258 78.7897H39.8245L36.3516 73.5015V78.7897H34.7653V70.323H36.1668L39.6395 75.6V70.323H41.2258V78.7897ZM36.1078 53.1889L38.9132 49.8663L47.1767 59.6531L43.9033 62.4204L36.1078 53.1889ZM49.7136 75.877C49.7136 76.3179 49.6324 76.7268 49.4771 77.0924C49.3195 77.4594 49.0978 77.7772 48.8195 78.0358C48.5411 78.2931 48.2087 78.4963 47.8318 78.6417C47.4574 78.7845 47.0486 78.8572 46.6175 78.8572C46.189 78.8572 45.7801 78.7845 45.4032 78.6417C45.0264 78.4963 44.6964 78.2919 44.4231 78.0346C44.1471 77.7758 43.9281 77.4594 43.7729 77.0924C43.6152 76.7268 43.5364 76.3179 43.5364 75.877V70.323H45.1227V75.8204C45.1227 76.3167 45.258 76.7083 45.5266 76.9829C45.7975 77.2611 46.1545 77.3954 46.6177 77.3954C47.0809 77.3954 47.4404 77.2601 47.7162 76.9816C47.9921 76.7032 48.125 76.3228 48.125 75.8203V70.323H49.7137L49.7136 75.877ZM53.3144 31.8876C52.1863 34.6375 50.1592 39.683 47.8932 42.3689C42.6224 48.9797 42.5508 42.9908 38.2062 47.9834L26.0142 62.4204L22.7558 59.6668L22.7014 59.6988C22.7014 59.6988 22.7162 59.6802 22.7384 59.6544C23.253 59.046 30.5042 50.4599 36.7432 43.0697C42.9156 35.7608 48.0681 29.6573 49.1542 28.3729C51.381 25.7337 55.0756 27.6068 53.3144 31.8876ZM4.64273 8.55176V8.45191C4.64273 7.47281 5.06145 6.49371 5.79041 5.76598C6.51709 5.03701 7.47264 4.64168 8.49234 4.64168H54.472L56.9129 8.55176H4.64273Z" fill="black"/>
</svg>
